<svg width="53" height="56" viewBox="0 0 53 56" fill="none" xmlns="http://www.w3.org/2000/svg">
<path d="M38.3305 55.7995L28.4157 54.1956V54.3961C28.0068 55.198 27.0869 55.7995 26.0647 55.7995C25.0426 55.7995 24.0204 55.198 23.7138 54.3961V54.1956H23.5094L13.9012 55.7995C13.6968 55.7995 13.5945 55.7995 13.5945 55.7995C13.5945 55.7995 13.4923 55.4988 13.4923 55.2983V51.5892C13.4923 51.3888 13.5945 51.088 13.6968 51.088L22.2828 45.6748L21.2606 40.6626V32.1418L0.817717 39.9609H0.715503C0.511073 39.9609 0.511073 39.9609 0.408859 39.9609C0.102215 39.7604 0 39.5599 0 39.4597V33.9462C0 33.7457 0.102215 33.445 0.204429 33.445L3.4753 31.5403V29.1345C3.4753 27.7311 4.59966 26.6284 5.82623 26.6284C6.84838 26.6284 7.6661 27.2298 8.07496 28.3325V28.6333L11.448 26.8289V24.423C11.448 23.0196 12.5724 21.9169 13.799 21.9169C14.8211 21.9169 15.7411 22.6186 16.0477 23.7213V24.022L16.3543 23.9218L21.1584 21.1149V11.291C21.1584 8.48411 21.7717 5.57702 23.1005 2.66993C23.816 1.467 25.0426 0.665039 26.2692 0.665039C26.5758 0.665039 26.7802 0.665039 27.1891 0.765284C28.2112 1.16626 29.029 1.86797 29.54 2.97066C30.7666 5.77751 31.3799 8.58435 31.3799 11.1907V21.2152L36.4906 24.1223V23.621C36.7973 22.6186 37.7172 21.9169 38.7394 21.9169C39.9659 21.9169 41.0903 23.1198 41.0903 24.423V26.8289L44.4634 28.6333V28.3325C44.77 27.2298 45.5877 26.6284 46.7121 26.6284C47.3254 26.6284 47.8365 26.8289 48.4497 27.3301C48.8586 27.8313 49.063 28.4328 49.063 29.0342V31.3399L52.3339 33.2445C52.4361 33.3447 52.5383 33.5452 52.5383 33.7457V39.2592C52.5383 39.4597 52.4361 39.6601 52.3339 39.6601C52.2317 39.7604 52.2317 39.7604 52.0273 39.7604H51.8228L31.3799 31.9413V40.4621L30.1533 45.5746L38.7394 50.9878C38.8416 51.088 38.9438 51.2885 38.9438 51.489V55.198C38.9438 55.3985 38.8416 55.599 38.8416 55.6993C38.7393 55.7995 38.6371 55.8998 38.5349 55.8998L38.3305 55.7995ZM26.0647 2.06846C25.247 2.06846 24.5315 2.46944 24.0204 3.37164C22.8961 5.77751 22.385 8.38386 22.385 11.3912V40.2616L24.7359 53.1932C24.8382 54.0954 25.3492 54.5966 26.167 54.5966C26.9847 54.5966 27.4957 54.0954 27.598 53.1932L30.0511 40.2616V11.3912C30.0511 8.48411 29.54 5.978 28.4157 3.67237C28.109 2.97066 27.4957 2.3692 26.8825 2.16871C26.3714 2.06846 26.167 2.06846 26.0647 2.06846ZM14.3101 51.89V54.4963L23.3049 52.8924L22.1806 46.8778L14.3101 51.89ZM28.7223 52.6919L37.7172 54.3961V51.5892L29.8467 46.6773L28.7223 52.6919ZM1.02215 34.3472V38.5575L21.0562 30.6381V22.7188L1.02215 34.3472ZM30.8688 30.8386L50.9029 38.5575V34.2469L30.8688 23.0196V30.8386ZM5.82623 28.0318C5.21295 28.0318 4.59966 28.6333 4.59966 29.335V30.9389L6.9506 29.6357V29.4352V28.934C6.9506 28.4328 6.33731 28.0318 5.82623 28.0318ZM46.201 27.8313C45.5877 27.8313 45.1789 28.132 45.0767 28.7335V29.5355L47.4276 31.0391V29.1345C47.4276 28.4328 46.9165 27.8313 46.201 27.8313ZM13.6968 23.4205C13.0835 23.4205 12.4702 24.022 12.4702 24.7237V26.4279L14.8211 25.1247V24.824C14.9233 24.423 14.8211 24.1223 14.5145 23.8215C14.3101 23.5208 14.0034 23.4205 13.6968 23.4205ZM38.2283 23.5208C37.615 23.5208 37.0017 24.1223 37.0017 24.824V25.1247L39.4549 26.4279V24.824C39.4549 24.1223 38.9438 23.5208 38.2283 23.5208Z" fill="#F3F3F3"/>
<path d="M26.9841 15.8018H25.3486V35.9509H26.9841V15.8018Z" fill="#9FCCFF"/>
<path d="M28.2113 7.68238C27.9047 6.78018 27.087 6.27896 26.2692 6.17871C25.3493 6.17871 24.6338 6.78018 24.3272 7.68238L23.7139 9.58703L25.3493 10.1885L25.8604 8.28385C25.8604 8.1836 26.0648 8.08336 26.167 8.08336C26.2692 8.08336 26.3714 8.1836 26.4737 8.28385L26.9847 10.1885L28.6202 9.58703L28.2113 7.68238Z" fill="#9FCCFF"/>
</svg>
