<svg width="58" height="63" viewBox="0 0 58 63" fill="none" xmlns="http://www.w3.org/2000/svg">
<path opacity="0.08" d="M42.5656 62.0513L31.9352 60.1467V60.2469C31.4242 61.3496 30.2998 62.0513 29.1754 62.0513C28.0511 62.0513 26.8245 61.3496 26.4156 60.3472V60.2469L15.7853 62.0513C15.4787 62.0513 15.2743 62.0513 15.172 61.8508C15.0698 61.7506 14.9676 61.3496 14.9676 61.1491V56.9389C14.9676 56.7384 15.0698 56.2372 15.2743 56.1369L24.678 50.2225L23.5536 44.8093V44.709V35.687L1.27085 44.4083C1.16863 44.4083 1.06642 44.4083 1.06642 44.4083C0.964202 44.4083 0.759772 44.4083 0.555343 44.3081C0.248699 44.0073 0.146484 43.8068 0.146484 43.5061V37.291C0.146484 37.0905 0.248699 36.5892 0.657558 36.489L4.03064 34.3839V31.978C4.03064 30.3741 5.25722 28.9707 6.79044 28.9707C8.01701 28.9707 9.14137 29.7726 9.44802 31.0758V31.176L12.7189 29.2714V26.7653C12.7189 25.1614 13.9455 23.7579 15.4787 23.7579C16.7053 23.7579 17.8296 24.6601 18.1363 25.9633V26.0636L23.3492 23.0562V12.0293C23.3492 8.72127 24.1669 5.4132 25.5979 2.30562C26.109 0.9022 27.54 0 29.1754 0C29.4821 0 29.9932 0 30.1976 0.100244C31.4242 0.601467 32.4463 1.50367 32.8552 2.60636C34.0817 5.51345 34.7973 8.72127 34.7973 11.9291V23.1565L40.0102 26.1638V26.0636C40.3168 24.7604 41.4412 23.8582 42.6678 23.8582C44.201 23.8582 45.4276 25.2616 45.4276 26.8655V29.3716L48.6984 31.2763V31.176C49.0051 29.8729 50.1294 29.0709 51.356 29.0709C52.1737 29.0709 52.787 29.2714 53.2981 29.8729C53.8092 30.4743 54.1158 31.2763 54.1158 32.0782V34.4841L57.4889 36.5892C57.6933 36.6895 58 37.0905 58 37.3912V43.6063C58 43.8068 57.8978 44.2078 57.6933 44.3081C57.5911 44.4083 57.4889 44.4083 57.1823 44.4083C57.08 44.4083 56.9778 44.4083 56.9778 44.4083L34.7973 35.687V44.709V44.8093L33.7751 50.423L43.1789 56.3374C43.3833 56.4376 43.4855 56.8386 43.4855 57.1394V61.3496C43.4855 61.5501 43.3833 61.9511 43.2811 62.0513C43.0766 61.9511 42.9744 62.0513 42.5656 62.0513Z" fill="#BCC9DA"/>
</svg>
