<svg width="320" height="360" viewBox="0 0 320 360" fill="none" xmlns="http://www.w3.org/2000/svg">
<path opacity="0.32" d="M302.388 101.575L302.401 101.628L302.426 101.677C307.02 110.91 308.713 121.613 310.268 131.437C310.353 131.972 310.437 132.504 310.521 133.033C311.335 138.143 312.153 142.981 313.385 147.158C314.612 151.319 316.263 154.879 318.776 157.417C319.809 158.832 319.742 161.097 318.538 164.183C317.341 167.255 315.081 170.972 312.037 175.101C305.955 183.352 296.819 193.148 287.057 202.549C277.298 211.947 266.931 220.936 258.397 227.571C254.13 230.89 250.328 233.614 247.296 235.506C245.779 236.453 244.463 237.185 243.383 237.679C242.285 238.182 241.491 238.409 240.996 238.409C239.286 238.409 237.138 238.89 234.664 239.74C232.181 240.593 229.336 241.83 226.221 243.37C219.99 246.449 212.646 250.755 204.904 255.669C189.421 265.496 172.314 277.775 159.282 287.597C153.513 291.74 147.98 298.341 142.93 305.875C137.875 313.418 133.284 321.929 129.411 329.918C125.537 337.909 122.378 345.386 120.186 350.865C119.091 353.605 118.237 355.846 117.657 357.403C117.367 358.181 117.145 358.788 116.996 359.201C116.965 359.288 116.937 359.366 116.912 359.435L42.8609 346.493L46.0931 288.028L46.0993 287.915L46.0565 287.81L23.2596 232.174L23.1822 231.985L22.9947 231.904L0.519749 222.225C2.16716 194.43 7.05351 152.928 17.9859 114.272C28.9737 75.4216 46.0307 39.5888 71.9134 23.3325L71.9196 23.3286L71.9257 23.3245L71.9384 23.316C81.6104 16.8363 91.3223 10.3298 101.035 0.630386C102.596 1.57132 104.208 2.54168 105.863 3.53792C121.441 12.9156 140.829 24.5865 157.265 35.5972C166.419 41.7299 174.644 47.6496 180.78 52.8474C183.848 55.4467 186.384 57.857 188.25 60.0158C190.117 62.1772 191.273 64.0408 191.656 65.5565C192.51 70.6673 195.714 73.85 200.608 75.8382C205.475 77.8156 212.063 78.6355 219.801 79.0448C224.443 79.2903 229.508 79.389 234.893 79.494C247.527 79.7403 261.922 80.0209 276.743 82.3123L276.781 82.3182H276.82C283.25 82.3182 288.84 83.9331 293.215 87.131C297.587 90.3262 300.784 95.129 302.388 101.575Z" stroke="white"/>
</svg>
