<svg width="15" height="19" viewBox="0 0 15 19" fill="none" xmlns="http://www.w3.org/2000/svg">
<path d="M6.95454 1.00002C3.35455 1.16366 0.409091 3.94548 0 7.46366C0 8.20002 0 8.85457 0.163636 9.50911C0.163636 9.50911 0.163636 9.59093 0.245455 9.75457C0.327273 10.2455 0.490909 10.7364 0.736364 11.1455C1.47273 12.8637 3.10909 15.7273 6.87273 18.8364C7.11818 19 7.44545 19 7.69091 18.8364C11.4545 15.7273 13.0909 12.8637 13.8273 11.1455C14.0727 10.6546 14.2364 10.2455 14.3182 9.75457C14.3182 9.59093 14.4 9.50911 14.4 9.50911C14.4818 9.10002 14.5636 8.60911 14.5636 8.1182C14.4 4.10911 11.0455 0.836385 6.95454 1.00002ZM7.2 11.7182C5.23636 11.7182 3.68182 10.1637 3.68182 8.20002C3.68182 6.23639 5.23636 4.68184 7.2 4.68184C9.16364 4.68184 10.6364 6.3182 10.6364 8.28184C10.6364 10.2455 9.08182 11.7182 7.2 11.7182Z" fill="white"/>
</svg>
