<svg width="50" height="55" viewBox="0 0 50 55" fill="none" xmlns="http://www.w3.org/2000/svg">
<path opacity="0.08" d="M50.0002 5.30647V52.3639C50.0002 53.5653 49.0987 54.4664 47.8967 54.4664H2.52106V54.2662H2.42089C1.21888 54.2662 0.317383 53.3651 0.317383 52.1636V5.20635C0.317383 4.00488 1.21888 3.10378 2.42089 3.10378H8.93174V0.901099C8.93174 0.400488 9.43257 0 9.83324 0C10.3341 0 10.7347 0.50061 10.7347 0.901099V3.30403H39.7832V0.901099C39.7832 0.400488 40.284 0 40.6847 0C41.1855 0 41.5862 0.50061 41.5862 0.901099V3.30403H48.097C49.0987 3.20391 50.0002 4.10501 50.0002 5.30647Z" fill="#BCC9DA"/>
</svg>
