<svg width="50" height="55" viewBox="0 0 50 55" fill="none" xmlns="http://www.w3.org/2000/svg">
<path d="M2.20367 55V54.7998H1.90317C0.801335 54.7998 0 53.8987 0 52.8975V5.73997C0 4.63863 0.901502 3.83765 1.90317 3.83765H8.61436V1.53484C8.61436 1.23447 9.01503 0.833984 9.31553 0.833984C9.61603 0.833984 10.0167 1.23447 10.0167 1.53484V4.13801H39.4658V1.53484C39.4658 1.23447 39.8664 0.833984 40.1669 0.833984C40.4674 0.833984 40.8681 1.23447 40.8681 1.53484V4.13801H47.5793C48.6811 4.13801 49.4825 5.03911 49.4825 6.04033V53.0977C49.4825 54.1991 48.581 55 47.5793 55H2.20367ZM1.30217 52.8975C1.30217 53.298 1.60267 53.5983 2.00334 53.5983H47.379C47.7796 53.5983 48.0801 53.298 48.0801 52.8975V14.6508H1.30217V52.8975ZM1.803 5.23936C1.40234 5.23936 1.202 5.4396 1.202 5.63984V13.2491H47.98V5.73997C47.98 5.33948 47.98 5.33948 47.5793 5.33948H40.8681V7.04155C40.8681 7.34192 40.4674 7.74241 40.1669 7.74241C39.8664 7.74241 39.3656 7.44204 39.3656 7.04155V5.13923H9.91653V6.84131C9.91653 7.14168 9.51586 7.54217 9.21536 7.54217C8.91486 7.54217 8.51419 7.14168 8.51419 6.84131V5.13923H1.803V5.23936Z" fill="#F3F3F3"/>
<path d="M19.0321 46.8903L29.9503 24.9635V23.9623H17.1289V22.3604H32.2541V24.0624L21.1356 46.8903H19.0321Z" fill="#9FCCFF"/>
</svg>
