<svg width="47" height="55" viewBox="0 0 47 55" fill="none" xmlns="http://www.w3.org/2000/svg">
<path d="M0 55.0001V0.633789H32.2148L46.6107 14.0502V55.0001H0ZM1.4094 53.9989H45.1007V14.8511H31.2081V1.93538H1.4094V53.9989ZM32.4161 13.2492H44.1946L32.4161 2.63623V13.2492Z" fill="#F3F3F3"/>
<path d="M8.35534 37.6788C7.85199 37.6788 7.54997 37.3785 7.54997 36.8779C7.54997 36.3773 7.85199 36.0769 8.35534 36.0769H27.8855C28.3889 36.0769 28.6909 36.5775 28.6909 36.8779C28.6909 37.3785 28.3889 37.6788 27.8855 37.6788H8.35534ZM8.35534 31.4713C7.85199 31.4713 7.54997 31.1709 7.54997 30.6703C7.54997 30.1697 7.85199 29.8693 8.35534 29.8693H27.8855C28.3889 29.8693 28.6909 30.1697 28.6909 30.6703C28.6909 31.1709 28.3889 31.4713 27.8855 31.4713H8.35534ZM8.35534 25.1636C7.85199 25.1636 7.54997 24.8632 7.54997 24.3626C7.54997 23.862 7.85199 23.5616 8.35534 23.5616H27.8855C28.3889 23.5616 28.6909 23.862 28.6909 24.3626C28.6909 24.8632 28.3889 25.1636 27.8855 25.1636H8.35534ZM8.35534 18.956C7.85199 18.956 7.54997 18.6556 7.54997 18.155C7.54997 17.6544 7.85199 17.3541 8.35534 17.3541H27.8855C28.3889 17.3541 28.6909 17.8547 28.6909 18.155C28.6909 18.6556 28.3889 18.956 27.8855 18.956H8.35534ZM8.35534 12.7484C7.85199 12.7484 7.34863 12.4481 7.34863 11.9475C7.34863 11.3467 7.85199 11.1465 8.35534 11.1465H16.107C16.6104 11.1465 16.9124 11.4469 16.9124 11.9475C16.9124 12.4481 16.6104 12.7484 16.107 12.7484H8.35534Z" fill="#9FCCFF"/>
</svg>
