<svg width="49" height="48" viewBox="0 0 49 48" fill="none" xmlns="http://www.w3.org/2000/svg">
<path d="M24.1206 48C10.8543 48 0 37.2869 0 24.1709C0 10.9548 10.8543 0.141602 24.1206 0.141602C37.2864 0.141602 48.0402 10.9548 48.0402 24.1709C48.0402 37.2869 37.2864 48 24.1206 48ZM24.1206 1.54331C11.7588 1.54331 1.30653 11.956 1.30653 24.271C1.30653 36.6862 11.5578 46.6984 24.1206 46.6984C36.5829 46.6984 46.6332 36.5861 46.6332 24.271C46.6332 11.7558 36.4824 1.54331 24.1206 1.54331Z" fill="#F3F3F3"/>
<path d="M24.0201 34.0832C20.1005 34.0832 16.3819 31.6803 15.0754 28.0759C14.9749 27.7755 14.9749 27.6754 15.0754 27.4752C15.1759 27.1748 15.3769 27.1748 15.5779 27.1748C15.6784 27.1748 15.6784 27.1748 15.8794 27.1748C16.2814 27.1748 16.4824 27.4752 16.6834 27.6754C17.6884 30.6791 20.804 32.5814 24.0201 32.5814C27.2362 32.5814 30.2513 30.579 31.3568 27.6754C31.4573 27.2749 31.7588 27.1748 32.1608 27.1748C32.2613 27.1748 32.2613 27.1748 32.4623 27.1748C32.7638 27.2749 32.8643 27.4752 32.9648 27.4752C33.0653 27.7755 33.0653 27.8757 32.9648 28.0759C31.5578 31.5802 28.0402 34.0832 24.0201 34.0832Z" fill="#9FCCFF"/>
<path d="M18.4929 18.0637C17.6889 18.0637 16.9854 17.3629 16.9854 16.5619C16.9854 15.7609 17.6889 15.0601 18.4929 15.0601C19.2969 15.0601 20.0004 15.7609 20.0004 16.5619C20.0004 17.463 19.2969 18.0637 18.4929 18.0637Z" fill="#9FCCFF"/>
<path d="M29.5476 18.0637C28.7436 18.0637 28.04 17.3629 28.04 16.5619C28.04 15.7609 28.7436 15.0601 29.5476 15.0601C30.3516 15.0601 31.0551 15.7609 31.0551 16.5619C31.0551 17.463 30.4521 18.0637 29.5476 18.0637Z" fill="#9FCCFF"/>
</svg>
