<svg width="38" height="61" viewBox="0 0 38 61" fill="none" xmlns="http://www.w3.org/2000/svg">
<path opacity="0.08" d="M13.3479 60.0733C6.11535 60.0733 0.207031 54.2662 0.207031 47.1575C0.207031 43.2527 1.93878 39.7485 4.99481 37.3455V8.21001C4.99481 3.80464 8.76391 0 13.2461 0C17.7283 0 21.4974 3.80464 21.4974 8.10989V37.1453C24.5534 39.8486 26.2851 43.453 26.2851 47.1575C26.387 54.2662 20.4787 60.0733 13.3479 60.0733ZM29.9524 35.0427C29.3412 35.0427 28.9337 34.442 28.9337 34.0415C28.9337 33.641 29.5449 33.0403 29.9524 33.0403H36.9812C37.5924 33.0403 37.9999 33.641 37.9999 34.0415C37.9999 34.442 37.3887 35.0427 36.9812 35.0427H29.9524ZM29.6468 28.0342C29.0356 28.0342 28.6281 27.4335 28.6281 27.033C28.6281 26.6325 29.2393 26.0317 29.6468 26.0317H34.4345C34.842 26.0317 35.2495 26.1319 35.3513 26.4322C35.4532 26.5324 35.4532 26.8327 35.4532 27.1331C35.4532 27.7338 34.842 28.1343 34.4345 28.1343H29.6468V28.0342ZM29.9524 20.8254C29.3412 20.8254 28.9337 20.2247 28.9337 19.8242C28.9337 19.2234 29.5449 18.823 29.9524 18.823H36.9812C37.5924 18.823 37.9999 19.4237 37.9999 19.8242C37.9999 20.4249 37.3887 20.8254 36.9812 20.8254H29.9524ZM29.6468 13.917C29.0356 13.917 28.6281 13.3162 28.6281 12.9157C28.6281 12.315 29.2393 11.9145 29.6468 11.9145H34.4345C34.842 11.9145 35.2495 12.0147 35.3513 12.315C35.4532 12.4151 35.4532 12.7155 35.4532 13.0159C35.4532 13.6166 34.842 14.0171 34.4345 14.0171H29.6468V13.917ZM29.9524 6.70818C29.3412 6.70818 28.9337 6.10745 28.9337 5.70696C28.9337 5.30647 29.5449 4.70574 29.9524 4.70574H36.9812C37.5924 4.80586 37.9999 5.40659 37.9999 5.9072C37.9999 6.50794 37.3887 6.90842 36.9812 6.90842L29.9524 6.70818Z" fill="#BCC9DA"/>
</svg>
