<svg width="34" height="54" viewBox="0 0 34 54" fill="none" xmlns="http://www.w3.org/2000/svg">
<path d="M11.4092 54C5.09338 54 0 48.8937 0 42.586C0 39.0818 1.62988 35.7777 4.27844 33.8754V7.34307C4.27844 3.43831 7.5382 0.134277 11.4092 0.134277C15.2801 0.134277 18.5399 3.43831 18.5399 7.24295V33.4749C21.2903 35.8779 22.8183 39.1819 22.8183 42.4859C22.8183 45.5897 21.6978 48.3931 19.4567 50.5958C17.3175 52.7985 14.4652 54 11.4092 54ZM11.7148 1.73623C8.55688 1.73623 6.01019 4.33941 6.01019 7.44319V34.376C6.01019 34.7765 5.90832 34.7765 5.70458 34.8766C2.95416 36.8791 1.42615 39.6825 1.42615 42.8864C1.42615 48.293 5.90832 52.6984 11.4092 52.6984C16.8081 52.6984 21.2903 48.293 21.5959 42.6862C21.5959 39.5824 20.1698 36.6788 17.6231 34.6764C17.6231 34.5763 17.3175 34.1758 17.3175 34.0757V7.24295C17.3175 4.33941 14.6689 1.73623 11.7148 1.73623ZM26.3837 31.3724C26.0781 31.3724 25.6706 30.8718 25.6706 30.6715C25.6706 30.3711 26.18 29.9707 26.3837 29.9707H32.6995C33.0051 29.9707 33.4126 30.4713 33.4126 30.6715C33.4126 30.9719 32.9032 31.3724 32.6995 31.3724H26.3837ZM26.18 25.0647C25.8744 25.0647 25.4669 24.5641 25.4669 24.3638C25.4669 24.0635 25.9762 23.663 26.18 23.663H30.4584C30.8659 23.663 31.0696 23.7631 31.0696 23.8632C31.1715 23.9633 31.1715 24.2637 31.1715 24.3638C31.1715 24.6642 30.6621 25.0647 30.4584 25.0647H26.18ZM26.3837 18.5567C26.0781 18.5567 25.6706 18.0561 25.6706 17.8559C25.6706 17.5555 26.18 17.155 26.3837 17.155H32.6995C33.0051 17.155 33.4126 17.6556 33.4126 17.8559C33.4126 18.1563 32.9032 18.5567 32.6995 18.5567H26.3837ZM26.18 12.2491C25.8744 12.2491 25.4669 11.7484 25.4669 11.5482C25.4669 11.2478 25.9762 10.8473 26.18 10.8473H30.4584C30.8659 10.8473 31.0696 10.9475 31.0696 11.0476C31.1715 11.1477 31.1715 11.4481 31.1715 11.5482C31.1715 11.8486 30.6621 12.2491 30.4584 12.2491H26.18ZM26.5874 5.84124V5.74112H26.3837C26.0781 5.74112 25.6706 5.2405 25.6706 5.04026C25.6706 4.73989 26.18 4.3394 26.3837 4.3394H32.6995C33.0051 4.43953 33.4126 4.73989 33.4126 5.14038C33.4126 5.44075 32.9032 5.84124 32.6995 5.84124H26.5874Z" fill="#F3F3F3"/>
<path d="M11.6128 47.8925C8.65869 47.8925 6.21387 45.5897 6.21387 42.6861C6.21387 40.2832 8.04748 38.0805 10.4923 37.5799H10.696V7.1428C10.696 6.64219 10.8998 6.34182 11.511 6.2417C11.9185 6.2417 12.4278 6.84243 12.4278 7.1428V37.68H12.6315C15.0763 38.0805 16.91 40.1831 17.0118 42.6861C17.0118 45.5897 14.6689 47.8925 11.6128 47.8925ZM11.511 38.9816C9.47363 38.9816 7.74188 40.6837 7.74188 42.6861C7.74188 44.7887 9.37176 46.3907 11.511 46.3907C13.5483 46.3907 15.2801 44.6886 15.2801 42.6861C15.2801 40.5836 13.6502 38.9816 11.511 38.9816Z" fill="#9FCCFF"/>
</svg>
