<svg width="50" height="55" viewBox="0 0 50 55" fill="none" xmlns="http://www.w3.org/2000/svg">
<path d="M0.500835 55.0001C0.200334 54.7998 0 54.5996 0 54.2992V1.33464C0 0.934154 0.400668 0.633789 0.701169 0.633789H48.9816C49.4825 0.633789 49.783 1.03428 49.783 1.33464V54.099C49.783 54.5996 49.3823 54.7998 49.0818 54.7998L0.500835 55.0001ZM1.5025 53.3981H48.581V2.0355H31.4524V19.657C31.4524 20.0575 31.0518 20.3578 30.7513 20.3578C30.6511 20.3578 30.5509 20.3578 30.3506 20.2577L25.1419 17.3542L19.4324 20.1576C19.3322 20.2577 19.2321 20.2577 19.0317 20.2577C18.8314 20.2577 18.7312 20.1576 18.6311 20.0575C18.5309 19.9574 18.3306 19.657 18.3306 19.5569V2.0355H1.5025V53.3981ZM24.9416 15.552C25.0417 15.552 25.0417 15.552 25.2421 15.6521L30.1503 18.5556V2.0355H19.5326V18.3554H19.9332L24.5409 15.7522C24.6411 15.7522 24.6411 15.7522 24.7412 15.6521H24.8414L24.9416 15.552Z" fill="#F3F3F3"/>
<path d="M7.31264 33.3735C6.71163 33.3735 6.41113 33.0731 6.41113 32.4724C6.41113 31.8717 6.71163 31.5713 7.31264 31.5713H18.5313C19.1323 31.5713 19.4328 31.8717 19.4328 32.4724C19.4328 33.0731 19.1323 33.3735 18.5313 33.3735H7.31264Z" fill="#9FCCFF"/>
<path d="M7.31264 38.7802C6.71163 38.7802 6.41113 38.4799 6.41113 37.8791C6.41113 37.2784 6.71163 36.978 7.31264 36.978H21.336C21.937 36.978 22.2375 37.2784 22.2375 37.8791C22.2375 38.4799 21.937 38.7802 21.336 38.7802H7.31264Z" fill="#9FCCFF"/>
</svg>
